<svg viewBox="0 0 22 22">
    <path d="M17.7634 10.8599C18.7448 10.8599 19.6859 10.4805 20.3799 9.80505C21.0738 9.12965 21.4637 8.21361 21.4637 7.25845C21.4637 6.38013 21.2859 5.5104 20.9406 4.69892C20.5952 3.88745 20.089 3.15013 19.4509 2.52906C18.8128 1.90799 18.0553 1.41532 17.2215 1.0792C16.3878 0.74308 15.4942 0.57008 14.5918 0.57008C13.6104 0.57008 12.6692 0.949515 11.9753 1.62491C11.2813 2.30031 10.8915 3.21635 10.8915 4.17151C10.8915 3.21635 10.5016 2.30031 9.80772 1.62491C9.11378 0.949515 8.17261 0.57008 7.19124 0.57008C5.3687 0.57008 3.6208 1.27475 2.33207 2.52906C1.04334 3.78337 0.319336 5.48459 0.319336 7.25845C0.319336 8.21361 0.709183 9.12965 1.40312 9.80505C2.09705 10.4805 3.03822 10.8599 4.01959 10.8599C3.03822 10.8599 2.09705 11.2393 1.40312 11.9147C0.709183 12.5901 0.319336 13.5062 0.319336 14.4613C0.319336 15.3397 0.497083 16.2094 0.842428 17.0208C1.18777 17.8323 1.69395 18.5696 2.33207 19.1907C3.6208 20.445 5.3687 21.1497 7.19124 21.1497C8.17261 21.1497 9.11378 20.7703 9.80772 20.0949C10.5016 19.4195 10.8915 18.5034 10.8915 17.5483C10.8915 18.5034 11.2813 19.4195 11.9753 20.0949C12.6692 20.7703 13.6104 21.1497 14.5918 21.1497C15.4942 21.1497 16.3878 20.9767 17.2215 20.6406C18.0553 20.3045 18.8128 19.8118 19.4509 19.1907C20.089 18.5696 20.5952 17.8323 20.9406 17.0208C21.2859 16.2094 21.4637 15.3397 21.4637 14.4613C21.4637 13.5062 21.0738 12.5901 20.3799 11.9147C19.6859 11.2393 18.7448 10.8599 17.7634 10.8599ZM10.8915 14.9758C9.76993 14.9758 8.6943 14.5422 7.90124 13.7703C7.10817 12.9984 6.66263 11.9515 6.66263 10.8599C6.66263 9.76828 7.10817 8.72138 7.90124 7.94949C8.6943 7.1776 9.76993 6.74396 10.8915 6.74396C12.0131 6.74396 13.0887 7.1776 13.8818 7.94949C14.6748 8.72138 15.1204 9.76828 15.1204 10.8599C15.1204 11.9515 14.6748 12.9984 13.8818 13.7703C13.0887 14.5422 12.0131 14.9758 10.8915 14.9758ZM13.5345 10.8599C13.5345 11.5421 13.2561 12.1965 12.7604 12.6789C12.2647 13.1613 11.5925 13.4323 10.8915 13.4323C10.1905 13.4323 9.51825 13.1613 9.02258 12.6789C8.52692 12.1965 8.24846 11.5421 8.24846 10.8599C8.24846 10.1776 8.52692 9.52332 9.02258 9.04089C9.51825 8.55846 10.1905 8.28744 10.8915 8.28744C11.5925 8.28744 12.2647 8.55846 12.7604 9.04089C13.2561 9.52332 13.5345 10.1776 13.5345 10.8599Z"/>
</svg>