<svg x="0" y="0" viewBox="0 0 64 64" style="enable-background:new 0 0 512 512">
    <g>
        <g>
            <g>
                <g>
                    <path d="m59.5 18.5h-55c-1.1 0-2-.9-2-2s.9-2 2-2h55c1.1 0 2 .9 2 2s-.9 2-2 2z" ></path>
                </g>
            </g>
        </g>
        <g>
            <g>
                <g>
                    <path d="m32.5 34.5h-28c-1.1 0-2-.9-2-2s.9-2 2-2h28c1.1 0 2 .9 2 2s-.9 2-2 2z"></path>
                </g>
            </g>
        </g>
        <g>
            <g>
                <g>
                    <path d="m59.5 50.5h-55c-1.1 0-2-.9-2-2s.9-2 2-2h55c1.1 0 2 .9 2 2s-.9 2-2 2z"></path>
                </g>
            </g>
        </g>
    </g>
</svg>