<svg viewBox="0 0 26 17">
    <path d="M17.5862 7.59554C19.4841 7.59554 21.0047 6.06351 21.0047 4.16561C21.0047 2.26771 19.4841 0.735672 17.5862 0.735672C15.6883 0.735672 14.1563 2.26771 14.1563 4.16561C14.1563 6.06351 15.6883 7.59554 17.5862 7.59554ZM8.43971 7.59554C10.3376 7.59554 11.8582 6.06351 11.8582 4.16561C11.8582 2.26771 10.3376 0.735672 8.43971 0.735672C6.54181 0.735672 5.00977 2.26771 5.00977 4.16561C5.00977 6.06351 6.54181 7.59554 8.43971 7.59554ZM8.43971 9.88217C5.77579 9.88217 0.436523 11.2198 0.436523 13.8838V16.742H16.4429V13.8838C16.4429 11.2198 11.1036 9.88217 8.43971 9.88217ZM17.5862 9.88217C17.2546 9.88217 16.8774 9.90504 16.4772 9.93933C17.8034 10.8997 18.7295 12.1917 18.7295 13.8838V16.742H25.5894V13.8838C25.5894 11.2198 20.2501 9.88217 17.5862 9.88217Z"/>
</svg>