<svg viewBox="0 0 21 22">
    <path fill-rule="evenodd" clip-rule="evenodd" d="M1.8002 0.600098C0.916531 0.600098 0.200195 1.31645 0.200195 2.2001V19.8001C0.200195 20.6838 0.916547 21.4001 1.8002 21.4001H13.8002C14.242 21.4001 14.6002 21.0419 14.6002 20.6001C14.6002 20.1583 14.242 19.8001 13.8002 19.8001H1.8002V2.2001H13.8002C14.242 2.2001 14.6002 1.84192 14.6002 1.4001C14.6002 0.958274 14.242 0.600098 13.8002 0.600098H1.8002ZM17.166 6.83442C16.8535 6.52199 16.3469 6.52199 16.0344 6.83442C15.7221 7.14683 15.7221 7.65336 16.0344 7.96578L18.2688 10.2001H7.4002C6.95837 10.2001 6.60019 10.5583 6.60019 11.0001C6.60019 11.4419 6.95837 11.8001 7.4002 11.8001H18.2688L16.0344 14.0344C15.7221 14.3468 15.7221 14.8534 16.0344 15.1659C16.3469 15.4782 16.8535 15.4782 17.166 15.1659L20.766 11.5658C21.0783 11.2534 21.0783 10.7468 20.766 10.4344L17.166 6.83442Z"/>
</svg>