<svg viewBox="0 0 22 24">
    <path d="M19.0161 2.69109H14.2371C13.7569 1.36485 12.4993 0.404465 11.013 0.404465C9.52665 0.404465 8.269 1.36485 7.78881 2.69109H3.00977C1.75213 2.69109 0.723145 3.72007 0.723145 4.97771V20.9841C0.723145 22.2417 1.75213 23.2707 3.00977 23.2707H19.0161C20.2738 23.2707 21.3028 22.2417 21.3028 20.9841V4.97771C21.3028 3.72007 20.2738 2.69109 19.0161 2.69109ZM11.013 2.69109C11.6418 2.69109 12.1563 3.20558 12.1563 3.8344C12.1563 4.46322 11.6418 4.97771 11.013 4.97771C10.3841 4.97771 9.86964 4.46322 9.86964 3.8344C9.86964 3.20558 10.3841 2.69109 11.013 2.69109ZM13.2996 18.6975H5.29639V16.4108H13.2996V18.6975ZM16.7295 14.1242H5.29639V11.8376H16.7295V14.1242ZM16.7295 9.55096H5.29639V7.26434H16.7295V9.55096Z"/>
</svg>