<svg class="w-full h-full" viewBox="0 0 18 21">
    <path class="fill-current" d="M9.00133 -0.000152588C6.12859 -0.000152588 3.78027 2.34817 3.78027 5.2209C3.78027 8.09364 6.12859 10.442 9.00133 10.442C11.8741 10.442 14.2224 8.09364 14.2224 5.2209C14.2224 2.34817 11.8741 -0.000152588 9.00133 -0.000152588Z"/>
    <path class="fill-current" d="M17.9615 14.6142C17.8247 14.2722 17.6423 13.9531 17.4372 13.6567C16.3884 12.1063 14.7697 11.0803 12.9457 10.8295C12.7177 10.8068 12.4669 10.8523 12.2845 10.9891C11.327 11.6959 10.187 12.0607 9.00141 12.0607C7.81582 12.0607 6.67587 11.6959 5.71829 10.9891C5.53588 10.8523 5.28508 10.7839 5.05711 10.8295C3.23316 11.0803 1.59163 12.1063 0.565665 13.6567C0.360473 13.9531 0.178061 14.2951 0.0412948 14.6142C-0.027088 14.7511 -0.00430831 14.9106 0.0640745 15.0474C0.246487 15.3666 0.474459 15.6858 0.679651 15.9594C0.998829 16.3926 1.34083 16.7802 1.72844 17.145C2.04761 17.4642 2.41239 17.7606 2.77722 18.0569C4.57835 19.4021 6.7443 20.1089 8.97863 20.1089C11.213 20.1089 13.3789 19.4021 15.18 18.0569C15.5448 17.7834 15.9096 17.4642 16.2288 17.145C16.5936 16.7802 16.9584 16.3926 17.2776 15.9594C17.5056 15.663 17.7108 15.3666 17.8932 15.0474C18.0071 14.9106 18.0299 14.751 17.9615 14.6142Z"/>
</svg>